<svg width="25" height="26" viewBox="0 0 25 26" fill="none" xmlns="http://www.w3.org/2000/svg">
<path d="M9.22013 4.57227L7.98879 7.03494H3.80224C2.84722 7.03494 2.07837 7.80378 2.07837 8.75881V19.5946C2.07837 20.5496 2.84722 21.3185 3.80224 21.3185H20.5484C21.5035 21.3185 22.2723 20.5496 22.2723 19.5946V8.75881C22.2723 7.80378 21.5035 7.03494 20.5484 7.03494H16.3619L15.1306 4.57227H9.22013ZM12.1753 8.75881C15.1559 8.75881 17.5932 11.1962 17.5932 14.1767C17.5932 17.1572 15.1559 19.5946 12.1753 19.5946C9.19481 19.5946 6.75745 17.1572 6.75745 14.1767C6.75745 11.1961 9.19481 8.75881 12.1753 8.75881ZM12.1753 10.729C10.2596 10.729 8.72759 12.2609 8.72759 14.1767C8.72759 16.0925 10.2596 17.6244 12.1753 17.6244C14.0912 17.6244 15.6231 16.0925 15.6231 14.1767C15.6231 12.2609 14.0912 10.729 12.1753 10.729Z" fill="white"/>
</svg>
