<svg width="48" height="48" viewBox="0 0 48 48" fill="none" xmlns="http://www.w3.org/2000/svg">
<path opacity="0.3" fill-rule="evenodd" clip-rule="evenodd" d="M10 14C10 18.4185 13.5817 22 18 22C22.4183 22 26 18.4185 26 14C26 9.58154 22.4183 6 18 6C13.5817 6 10 9.58154 10 14ZM30 22C30 25.3135 32.6863 28 36 28C39.3137 28 42 25.3135 42 22C42 18.6865 39.3137 16 36 16C32.6863 16 30 18.6865 30 22Z" fill="black"/>
<path fill-rule="evenodd" clip-rule="evenodd" d="M17.9667 26C8.52383 26 0.776511 30.853 0.00130394 40.3984C-0.0409324 40.9185 0.953422 42 1.45501 42H34.4934C35.9958 42 36.0192 40.791 35.9958 40.3999C35.4098 30.5864 27.5424 26 17.9667 26ZM46.9119 42H39.2C39.2 37.498 37.7126 33.3438 35.2024 30.0015C42.0154 30.0762 47.5784 33.5205 47.997 40.7998C48.0138 41.0933 47.997 42 46.9119 42Z" fill="black"/>
</svg>
