<svg width="367" height="150" viewBox="0 0 367 150" fill="none" xmlns="http://www.w3.org/2000/svg">
<g filter="url(#filter0_dd)">
<path d="M12 87H355V150H12V87Z" fill="white"/>
<mask id="mask0" mask-type="alpha" maskUnits="userSpaceOnUse" x="12" y="16" width="343" height="134">
<path d="M12 16H355V150H12V16Z" fill="white"/>
</mask>
<g mask="url(#mask0)">
<g clip-path="url(#clip0)">
<path d="M363 94V26V26.236C362.896 27.7829 362.016 29.2404 360.541 30.3074C359.066 31.3743 357.109 31.9692 355.075 31.9692C353.04 31.9692 351.083 31.3743 349.609 30.3074C348.134 29.2404 347.253 27.7829 347.15 26.236V26L331.299 26.236C331.195 27.7829 330.315 29.2404 328.84 30.3074C327.365 31.3743 325.409 31.9692 323.374 31.9692C321.34 31.9692 319.383 31.3743 317.908 30.3074C316.433 29.2404 315.553 27.7829 315.449 26.236V26L299.598 26.236C299.495 27.7829 298.614 29.2404 297.139 30.3074C295.665 31.3743 293.708 31.9692 291.673 31.9692C289.639 31.9692 287.682 31.3743 286.207 30.3074C284.732 29.2404 283.852 27.7829 283.748 26.236V26L267.898 26.236C267.794 27.7829 266.914 29.2404 265.439 30.3074C263.964 31.3743 262.007 31.9692 259.972 31.9692C257.938 31.9692 255.981 31.3743 254.506 30.3074C253.031 29.2404 252.151 27.7829 252.047 26.236V26L236.197 26.236C236.093 27.7829 235.213 29.2404 233.738 30.3074C232.263 31.3743 230.306 31.9692 228.272 31.9692C226.237 31.9692 224.28 31.3743 222.805 30.3074C221.331 29.2404 220.45 27.7829 220.347 26.236V26L204.496 26.236V26C204.496 30.2394 202.284 34.3052 198.347 37.3029C194.409 40.3006 189.069 41.9847 183.5 41.9847C177.932 41.9847 172.591 40.3006 168.654 37.3029C164.716 34.3052 162.504 30.2394 162.504 26L146.654 26.236C146.55 27.7829 145.669 29.2404 144.195 30.3074C142.72 31.3743 140.763 31.9692 138.728 31.9692C136.694 31.9692 134.737 31.3743 133.262 30.3074C131.787 29.2404 130.907 27.7829 130.803 26.236V26L114.953 26.236C114.849 27.7829 113.969 29.2404 112.494 30.3074C111.019 31.3743 109.062 31.9692 107.028 31.9692C104.993 31.9692 103.036 31.3743 101.561 30.3074C100.086 29.2404 99.2062 27.7829 99.1024 26.236V26L83.252 26.236C83.1482 27.7829 82.2679 29.2404 80.793 30.3074C79.3181 31.3743 77.3613 31.9692 75.3268 31.9692C73.2922 31.9692 71.3354 31.3743 69.8605 30.3074C68.3856 29.2404 67.5054 27.7829 67.4016 26.236V26L51.5512 26.236C51.4474 27.7829 50.5671 29.2404 49.0923 30.3074C47.6174 31.3743 45.6605 31.9692 43.626 31.9692C41.5914 31.9692 39.6346 31.3743 38.1597 30.3074C36.6848 29.2404 35.8046 27.7829 35.7008 26.236V26L19.8504 26.236C19.7466 27.7829 18.8664 29.2404 17.3915 30.3074C15.9166 31.3743 13.9598 31.9692 11.9252 31.9692C9.89066 31.9692 7.93382 31.3743 6.45894 30.3074C4.98406 29.2404 4.10379 27.7829 4 26.236V26L4.00001 94L363 94Z" fill="white"/>
</g>
</g>
</g>
<defs>
<filter id="filter0_dd" x="0" y="0" width="367" height="168" filterUnits="userSpaceOnUse" color-interpolation-filters="sRGB">
<feFlood flood-opacity="0" result="BackgroundImageFix"/>
<feColorMatrix in="SourceAlpha" type="matrix" values="0 0 0 0 0 0 0 0 0 0 0 0 0 0 0 0 0 0 127 0"/>
<feOffset dy="6"/>
<feGaussianBlur stdDeviation="6"/>
<feColorMatrix type="matrix" values="0 0 0 0 0 0 0 0 0 0 0 0 0 0 0 0 0 0 0.02 0"/>
<feBlend mode="normal" in2="BackgroundImageFix" result="effect1_dropShadow"/>
<feColorMatrix in="SourceAlpha" type="matrix" values="0 0 0 0 0 0 0 0 0 0 0 0 0 0 0 0 0 0 127 0"/>
<feOffset dy="-4"/>
<feGaussianBlur stdDeviation="6"/>
<feColorMatrix type="matrix" values="0 0 0 0 0 0 0 0 0 0 0 0 0 0 0 0 0 0 0.05 0"/>
<feBlend mode="normal" in2="effect1_dropShadow" result="effect2_dropShadow"/>
<feBlend mode="normal" in="SourceGraphic" in2="effect2_dropShadow" result="shape"/>
</filter>
<clipPath id="clip0">
<rect width="343" height="84" fill="white" transform="translate(12 16)"/>
</clipPath>
</defs>
</svg>
