<svg width="21" height="21" viewBox="0 0 21 21" fill="none" xmlns="http://www.w3.org/2000/svg">
<path opacity="0.64" d="M1.375 11.375C0.891752 11.375 0.5 10.9832 0.5 10.5C0.5 10.0168 0.891751 9.625 1.375 9.625H15.75C16.2333 9.625 16.625 10.0168 16.625 10.5C16.625 10.9832 16.2333 11.375 15.75 11.375L1.375 11.375Z" fill="white"/>
<path d="M10.3188 15.1313C9.97707 15.473 9.97707 16.027 10.3188 16.3687C10.6605 16.7104 11.2145 16.7104 11.5562 16.3687L16.8062 11.1187C17.1375 10.7875 17.1491 10.2541 16.8325 9.90874L12.02 4.65874C11.6935 4.30251 11.14 4.27844 10.7837 4.60499C10.4275 4.93153 10.4034 5.48503 10.73 5.84126L14.9764 10.4737L10.3188 15.1313Z" fill="white"/>
</svg>
