<svg width="26" height="26" viewBox="0 0 26 26" fill="none" xmlns="http://www.w3.org/2000/svg">
<path fill-rule="evenodd" clip-rule="evenodd" d="M6.64734 12.0096L2.75825 15.8987C2.36773 16.2892 2.36773 16.9224 2.75825 17.3129L4.38758 18.9422C5.43915 18.2455 6.8699 18.3604 7.79639 19.2869C8.72288 20.2134 8.83779 21.6442 8.14112 22.6957L9.77039 24.325C10.1609 24.7155 10.7941 24.7155 11.1846 24.325L15.0737 20.4359L13.4827 18.845C13.0922 18.4544 13.0922 17.8213 13.4827 17.4307L13.6005 17.3129C13.9911 16.9224 14.6242 16.9224 15.0148 17.3129L16.6057 18.9039L24.325 11.1846C24.7155 10.7941 24.7155 10.1609 24.325 9.77041L22.6957 8.14113C21.6441 8.83781 20.2134 8.72291 19.2869 7.79641C18.3604 6.86991 18.2455 5.43916 18.9422 4.38758L17.3129 2.75827C16.9223 2.36775 16.2892 2.36775 15.8986 2.75827L8.1794 10.4775L9.77041 12.0685C10.1609 12.4591 10.1609 13.0922 9.77041 13.4827L9.65256 13.6006C9.26204 13.9911 8.62887 13.9911 8.23835 13.6006L6.64734 12.0096ZM10.4185 15.7808C10.028 15.3903 10.028 14.7571 10.4185 14.3666L10.5364 14.2487C10.9269 13.8582 11.5601 13.8582 11.9506 14.2487L12.8345 15.1326C13.225 15.5232 13.225 16.1563 12.8345 16.5468L12.7166 16.6647C12.3261 17.0552 11.693 17.0552 11.3024 16.6647L10.4185 15.7808Z" fill="black"/>
</svg>
