<svg width="343" height="27" viewBox="0 0 343 27" fill="none" xmlns="http://www.w3.org/2000/svg">
<g clip-path="url(#clip0)">
<path d="M351 25.5V0V0.235985C350.896 1.78291 350.016 3.2404 348.541 4.30736C347.066 5.37433 345.109 5.96925 343.075 5.96925C341.04 5.96925 339.083 5.37433 337.609 4.30736C336.134 3.2404 335.253 1.78291 335.15 0.235985V0L319.299 0.235985C319.195 1.78291 318.315 3.2404 316.84 4.30736C315.365 5.37433 313.409 5.96925 311.374 5.96925C309.34 5.96925 307.383 5.37433 305.908 4.30736C304.433 3.2404 303.553 1.78291 303.449 0.235985V0L287.598 0.235985C287.495 1.78291 286.614 3.2404 285.139 4.30736C283.665 5.37433 281.708 5.96925 279.673 5.96925C277.639 5.96925 275.682 5.37433 274.207 4.30736C272.732 3.2404 271.852 1.78291 271.748 0.235985V0L255.898 0.235985C255.794 1.78291 254.914 3.2404 253.439 4.30736C251.964 5.37433 250.007 5.96925 247.972 5.96925C245.938 5.96925 243.981 5.37433 242.506 4.30736C241.031 3.2404 240.151 1.78291 240.047 0.235985V0L224.197 0.235985C224.093 1.78291 223.213 3.2404 221.738 4.30736C220.263 5.37433 218.306 5.96925 216.272 5.96925C214.237 5.96925 212.28 5.37433 210.805 4.30736C209.331 3.2404 208.45 1.78291 208.347 0.235985V0L192.496 0.235985V0C192.496 4.23941 190.284 8.30518 186.347 11.3029C182.409 14.3006 177.069 15.9847 171.5 15.9847C165.932 15.9847 160.591 14.3006 156.654 11.3029C152.716 8.30518 150.504 4.23941 150.504 0L134.654 0.235985C134.55 1.78291 133.669 3.2404 132.195 4.30736C130.72 5.37433 128.763 5.96925 126.728 5.96925C124.694 5.96925 122.737 5.37433 121.262 4.30736C119.787 3.2404 118.907 1.78291 118.803 0.235985V0L102.953 0.235985C102.849 1.78291 101.969 3.2404 100.494 4.30736C99.0189 5.37433 97.0621 5.96925 95.0276 5.96925C92.993 5.96925 91.0362 5.37433 89.5613 4.30736C88.0864 3.2404 87.2062 1.78291 87.1024 0.235985V0L71.252 0.235985C71.1482 1.78291 70.2679 3.2404 68.793 4.30736C67.3181 5.37433 65.3613 5.96925 63.3268 5.96925C61.2922 5.96925 59.3354 5.37433 57.8605 4.30736C56.3856 3.2404 55.5054 1.78291 55.4016 0.235985V0L39.5512 0.235985C39.4474 1.78291 38.5671 3.2404 37.0923 4.30736C35.6174 5.37433 33.6605 5.96925 31.626 5.96925C29.5914 5.96925 27.6346 5.37433 26.1597 4.30736C24.6848 3.2404 23.8046 1.78291 23.7008 0.235985V0L7.85039 0.235985C7.7466 1.78291 6.86636 3.2404 5.39148 4.30736C3.9166 5.37433 1.95976 5.96925 -0.0747881 5.96925C-2.10934 5.96925 -4.06618 5.37433 -5.54106 4.30736C-7.01594 3.2404 -7.89621 1.78291 -8 0.235985V0V25.5L351 25.5Z" fill="white"/>
</g>
<defs>
<clipPath id="clip0">
<rect width="343" height="27" fill="white"/>
</clipPath>
</defs>
</svg>
