<svg width="23" height="23" viewBox="0 0 23 23" fill="none" xmlns="http://www.w3.org/2000/svg">
<path fill-rule="evenodd" clip-rule="evenodd" d="M11 20C6.02944 20 2 15.9706 2 11C2 6.02944 6.02944 2 11 2C15.9706 2 20 6.02944 20 11C20 15.9706 15.9706 20 11 20Z" fill="#141D24"/>
<path fill-rule="evenodd" clip-rule="evenodd" d="M10.4147 6.46165C10.4347 6.20115 10.652 6 10.9132 6H10.9561C11.2129 6 11.428 6.19465 11.4536 6.45025L11.8877 10.7917L14.99 12.5644C15.1457 12.6534 15.2419 12.8191 15.2419 12.9985V13.012C15.2419 13.3417 14.9284 13.5812 14.6103 13.4944L10.3697 12.3379C10.1383 12.2748 9.98435 12.0563 10.0027 11.8172L10.4147 6.46165Z" fill="white"/>
</svg>
